<?xml version="1.0" encoding="utf-8"?>
<!DOCTYPE svg PUBLIC "-//W3C//DTD SVG 1.0//EN" "http://www.w3.org/TR/2001/REC-SVG-20010904/DTD/svg10.dtd">
<svg version="1.0" xmlns="http://www.w3.org/2000/svg" width="1024px" height="1024px" viewBox="0 0 1024 1024" preserveAspectRatio="xMidYMid meet">
 <g fill="none" stroke="#0d0f13" stroke-width="1">
  <path d="M0 512 l0 -512 512 0 512 0 0 512 0 512 -512 0 -512 0 0 -512z m114 289.5 c7.1 -1.1 245.4 -80.8 256.8 -85.9 18.7 -8.4 34.9 -19.9 47.2 -33.3 11.8 -13.1 18 -23.6 62.1 -106.2 6.3 -11.7 13.1 -23.3 15.2 -25.7 2.3 -2.6 6.5 -5.7 10.5 -7.6 l6.6 -3.3 22.1 -0.3 22 -0.3 5.4 4.5 c13.7 11.3 29.3 15.3 43.8 11.1 15 -4.3 26.3 -13.7 33.1 -27.4 2.3 -4.6 4.2 -9 4.2 -9.9 0 -1.3 1.3 -1.4 9.4 -0.8 8.1 0.5 10.6 0.3 19 -1.9 6.1 -1.6 12.4 -2.5 17.1 -2.5 l7.4 0 54.8 27.4 c30.1 15 56.5 27.9 58.6 28.5 3.3 1.1 4.2 1 8.3 -0.9 8.8 -4.3 12.1 -13.7 9.4 -27.2 -3.2 -16.6 -7.9 -23 -21.5 -29.3 -14.9 -6.9 -18.5 -12.6 -19.3 -30.2 -0.6 -14.2 1 -18.3 8.9 -22.7 2.8 -1.5 8.2 -5.8 12 -9.4 8.3 -7.7 14.1 -18.5 16.4 -30.2 1.8 -8.7 -0.6 -6.2 26.6 -26.9 25.4 -19.4 24.9 -19.1 32.9 -19.1 7.1 0 8.5 0.6 15.7 7.2 6.5 5.8 5.6 6.2 25.5 -10.4 11.6 -9.7 12.8 -11.1 12.8 -15.2 0 -5.6 -14.6 -23.3 -22.5 -27.2 l-5.6 -2.7 -121.2 0.7 c-66.7 0.4 -148.9 1.1 -182.7 1.6 l-61.5 1 -5.5 2.7 c-9.2 4.7 -10.9 8.9 -11 26.6 l0 10.8 -3.2 1.1 c-1.8 0.6 -7.8 3.4 -13.3 6.3 -31.6 16.2 -54.2 40 -68.3 71.9 -2.4 5.5 -16.8 47 -31.8 92 -31.1 93 -29.9 90.3 -45.4 104.8 -9.9 9.4 -17.5 13.8 -48 27.6 -34 15.4 -87.8 40.1 -115.7 53.1 -29.9 13.9 -35.5 15.8 -45.6 14.7 -7.8 -0.8 -13.2 -3.3 -21.9 -10.1 -8.9 -7 -13 -9.1 -20.9 -10.9 -24.7 -5.8 -52.1 21 -47.9 46.9 2.1 13.1 11.5 26.3 23 32.4 5.9 3.2 17 6.3 20 5.6 0.8 -0.2 3.5 -0.7 6 -1z"/>
  <path d="M97.5 794.1 c-9.3 -2.4 -17.7 -9.2 -22 -17.7 -2.8 -5.5 -3 -6.7 -3 -16.9 0 -12.2 1.4 -16.9 7.5 -24.5 6.4 -8.1 21.2 -12.6 33.1 -10.1 6.9 1.4 10.6 3.4 20.9 11 9.9 7.4 17.3 10.3 26 10.3 8 0 11.5 -1.3 43.5 -16.2 34.2 -15.9 55.2 -25.6 94.5 -43.5 55.4 -25.3 60.9 -28.4 74.5 -42.6 8.5 -8.9 13.9 -16.8 17.5 -25.9 1.3 -3 13.6 -39.5 27.5 -81 13.9 -41.5 27.1 -80.2 29.4 -85.9 11.7 -29.6 34.7 -55.4 61.2 -68.7 12.4 -6.2 19.8 -9 48.4 -18.4 39.4 -12.9 39.8 -13 43.8 -13 3.5 0 3.7 0.2 3.7 3.3 0 3.9 -8.8 23.4 -12.5 28 -5 5.9 -11.4 9.5 -24.4 13.8 -22.9 7.6 -35.5 15.3 -50.7 31.1 l-9.6 10 -4.6 -0.6 c-2.6 -0.3 -6.3 -0.9 -8.3 -1.2 -7.9 -1.3 -18.9 8 -18.9 16 0 3.5 3.1 9.4 6.7 12.8 1.5 1.4 10 7.2 18.8 12.8 25.7 16.4 31.1 21.2 40.6 36.5 3.8 6.1 4.9 8.8 4.9 12.1 l0 4.1 -13.2 0.6 c-18.8 0.8 -28.2 4.1 -39 13.6 -5.6 4.9 -9 10.5 -34.9 58.7 -13.3 24.7 -25.7 47.6 -27.7 50.9 -11.3 19 -21.1 30.4 -34.1 40 -17.5 12.9 -20.4 14 -155.5 59.1 -117.3 39.1 -125.3 41.7 -133 42 -4.4 0.2 -9.4 0 -11.1 -0.5z"/>
  <path d="M754 534 c-30 -15 -57 -28.1 -60 -29.2 -6 -2 -7.3 -1.9 -19.3 1.8 -5.2 1.6 -10.2 2.4 -15.1 2.4 -8.6 0 -10.6 -1.4 -10.6 -7.6 0 -4.1 0.9 -6.4 26.8 -68.9 7.7 -18.7 15 -37.1 16.1 -40.9 4.9 -16.1 0.7 -32.8 -11.5 -45.6 -4.1 -4.3 -5.4 -6.4 -5.4 -8.7 l0 -3.1 24.3 -0.6 c53.3 -1.3 211.3 -1.6 214.6 -0.5 2.2 0.8 5.3 3.7 9.2 8.6 5.1 6.4 5.9 8 5.9 11.7 0 4.1 -0.2 4.4 -9.9 12.4 -8.9 7.3 -10.4 8.2 -14 8.2 -3.2 0 -4.9 -0.7 -7.8 -3.4 -12.3 -11 -17.3 -9.5 -48.9 14.4 -23.4 17.7 -23.2 17.7 -28.8 5.2 -3.3 -7.2 -5.3 -10 -12 -16.8 -22.7 -22.8 -50.9 -22.9 -73.7 -0.4 -13.9 13.7 -19.7 31.8 -15.4 48.3 4.3 16.7 16.8 31.5 32.2 38.3 6.3 2.8 18.1 5.4 24.5 5.4 l4.1 0 -0.6 8.9 c-1.5 20.1 6.7 33.8 25.8 43.2 8.1 4 9.2 4.9 11.2 8.9 2.4 4.9 5.3 19.1 5.3 25.6 0 5.7 -2.4 8.5 -8.1 9.1 -4.2 0.5 -7.1 -0.8 -58.9 -26.7z"/>
  <path d="M585.2 548 c-7.1 -1.1 -17.1 -6.1 -22.5 -11.3 -2.4 -2.4 -6.1 -7.4 -8.2 -11.3 -15.4 -27.9 -23.5 -36.4 -52.8 -54.7 -18.7 -11.7 -18.7 -11.7 -18.7 -18.8 0 -7.7 1.3 -8.9 9.4 -8.9 5.8 0 7.5 0.6 19.7 6.6 17.4 8.6 25.8 11.9 35.2 13.8 10.1 2.1 17.1 2 30.2 -0.4 18 -3.3 26.9 -2.4 38.8 3.8 8.1 4.2 14.4 11.2 17.8 20 3.2 7.9 3.9 25.7 1.3 33.4 -4.8 14.7 -17.3 25.3 -33.1 27.8 -6.5 1.1 -9.4 1.1 -17.1 0z m16.8 -21.1 c7.9 -3.5 13.7 -10.6 15.5 -18.6 2.4 -11.4 -11.1 -27.3 -23.2 -27.3 -11.2 0.1 -24.3 13 -24.3 24 0.1 6.9 6.8 17.3 13.4 20.7 7.3 3.8 12.2 4.1 18.6 1.2z"/>
  <path d="M586.5 520.6 c-8.8 -3.3 -12.2 -14.2 -7.6 -24.3 3.6 -7.8 15.3 -10.8 24.2 -6.2 9.7 4.9 10.5 23.3 1.3 29.4 -3.6 2.3 -12.9 2.9 -17.9 1.1z"/>
  <path d="M636.7 479.2 c-5.3 -8.6 -13.4 -15.7 -23 -20.2 -12.3 -5.7 -17.7 -6.4 -32.2 -4 -23.2 3.8 -37.2 2.3 -55.7 -6 l-9.8 -4.4 0 -4.4 c0 -3.9 0.5 -4.9 5.8 -10.4 12 -12.7 21.7 -18.6 41.2 -25.3 26.3 -9 32.2 -13.9 43.4 -36.9 8.4 -17.2 11.3 -20.5 22.6 -26 6.1 -2.9 7.2 -3.1 18 -3.1 11 0 11.8 0.1 18.2 3.3 8.6 4.2 15.6 11.8 18.9 20.4 2 5.3 2.4 8.1 2.4 17.3 l-0.1 11 -5.5 13.5 c-3 7.4 -11.8 28.7 -19.4 47.3 l-13.9 33.7 -3.7 0 c-3.3 0 -3.9 -0.5 -7.2 -5.8z m18.8 -81.2 c7.2 -4.4 12.7 -12.9 12.7 -19.5 0 -3.8 -4.1 -12.2 -7.4 -15.1 -7.7 -7.1 -15.5 -8.1 -23.8 -3.1 -9.4 5.6 -14.2 16.6 -10.7 24.8 5.3 12.7 19.3 18.9 29.2 12.9z"/>
  <path d="M637.2 391.4 c-3.5 -2.4 -5.2 -6.8 -5.2 -13.1 0 -9.9 4.3 -14.2 14.3 -14.3 10.8 0 14.7 4.1 14.7 15.6 0 6.2 -0.2 6.8 -3.4 10 -3.3 3.3 -3.7 3.4 -10.8 3.4 -5 0 -8.1 -0.5 -9.6 -1.6z"/>
  <path d="M759 455.6 c-12.9 -2.9 -23.8 -11.5 -29.7 -23.4 -3.6 -7.3 -3.8 -8.1 -4.2 -19.3 -0.2 -8.9 0.1 -13.1 1.4 -17.5 3.6 -12.3 11.6 -21.6 23.5 -27.3 7.4 -3.6 7.6 -3.6 20.5 -3.6 11.3 0 13.8 0.3 18.8 2.4 15.7 6.2 26.2 21.3 27.4 39.3 2.4 33.6 -24.6 56.8 -57.7 49.4z m18.2 -22.2 c10.2 -3.4 18.7 -15.7 17.4 -25 -1.3 -9.8 -9.5 -19.2 -19.1 -22 -4.9 -1.4 -5.6 -1.3 -10.6 0.5 -3 1.2 -7.1 3.4 -9.1 5.1 -4.8 4 -9.1 12.8 -9 18.4 0.1 7.5 6.6 17.6 13.7 21.3 6.7 3.6 10.3 3.9 16.7 1.7z"/>
  <path d="M763.7 426.6 c-7.5 -2.8 -9.7 -6.5 -9.7 -16.7 0 -12.2 4.8 -16.9 17.3 -16.9 11.4 0 16.2 5.2 16.2 17.7 0 7.6 -1.3 10.6 -6.6 14.5 -3.3 2.5 -12.3 3.2 -17.2 1.4z"/>
  <path d="M535.7 360.3 c-0.4 -0.3 -0.7 -5 -0.7 -10.4 0 -8 0.3 -10.1 1.9 -12 l1.9 -2.4 31.1 -0.3 31.1 -0.3 0 3.4 0 3.5 -14.2 5 c-35.4 12.4 -48.8 15.9 -51.1 13.5z"/>
 </g>
 <g fill="#18f6cd">
  <path d="M97.3 804.5 c-29.2 -6.3 -44.4 -39 -31.1 -66.5 8.2 -16.9 29.1 -27.6 47 -24 9.3 1.8 13.4 3.8 22.4 10.6 9.6 7.3 12.6 9 18.9 10.4 8 1.8 13.6 0 43.8 -14.1 27.9 -13 81.7 -37.7 115.7 -53.1 30.5 -13.8 38.1 -18.2 48 -27.6 15.5 -14.5 14.3 -11.8 45.4 -104.8 15 -45 29.4 -86.5 31.8 -92 14.1 -31.9 36.7 -55.7 68.3 -71.9 5.5 -2.9 11.5 -5.7 13.3 -6.3 l3.2 -1.1 0 -10.8 c0.1 -17.7 1.8 -21.9 11 -26.6 l5.5 -2.7 61 -1 c33.6 -0.5 117.1 -1.2 185.7 -1.6 l124.7 -0.7 5.6 2.7 c8.2 4.1 21.5 20.3 23 28.2 1.2 6.7 -0.8 9.7 -13.3 20.2 -17.2 14.4 -16.9 14.2 -22.4 14.2 -4.2 0 -5.4 -0.5 -9.1 -3.8 -6.4 -5.8 -8.8 -7.2 -12.7 -7.2 -4.5 0 -6.5 1.3 -29.9 19.1 -27.2 20.7 -24.8 18.2 -26.6 26.9 -2.3 11.7 -8.1 22.5 -16.4 30.2 -3.8 3.6 -9.2 7.9 -12 9.4 -7.4 4.2 -9.5 8.9 -8.8 19.7 0.9 14.6 5.3 20.7 19.2 27.3 13.1 6.1 16.9 10.7 20.6 25.1 2.7 10.6 2.6 23.2 -0.2 29.1 -3.2 6.5 -8.6 9.7 -16.5 9.7 -6.2 0 -6.9 -0.3 -63.1 -28.3 -63.9 -31.8 -58.5 -30 -75 -25.6 -8.4 2.2 -11.1 2.5 -19 2 -7.4 -0.4 -9.3 -0.3 -9.3 0.8 0 2.5 -7.8 17 -11.5 21.3 -4.4 5.2 -13.8 11.5 -21 14.2 -18.7 7 -39 3.5 -54.5 -9.4 l-5.5 -4.6 -19 0.3 -19.1 0.3 -6.6 3.3 c-4 1.9 -8.2 5 -10.5 7.6 -2.1 2.4 -8.9 14 -15.2 25.7 -44.1 82.6 -50.3 93.1 -62.1 106.2 -12.3 13.4 -28.5 24.9 -47.1 33.3 -12.7 5.6 -247.4 84 -257.7 86 -8.8 1.7 -10.8 1.7 -18.9 -0.1z m141.7 -55.1 c134.6 -44.9 137.6 -46 155.1 -58.9 13 -9.6 22.8 -21 34.1 -40 2 -3.3 14.4 -26.2 27.7 -50.9 25.9 -48.2 29.3 -53.8 34.9 -58.7 10.8 -9.5 20.2 -12.8 39 -13.6 8.9 -0.4 13.2 -1 13.2 -1.7 0 -2 -9.6 -16.8 -14.3 -22.2 -6 -6.6 -12 -11.2 -31.2 -23.4 -8.8 -5.6 -17.3 -11.4 -18.8 -12.8 -10.6 -9.9 -8.9 -26.5 3.3 -32.7 5.4 -2.7 13.3 -3.3 18.8 -1.4 3 1 3.2 0.9 12.7 -8.9 15.1 -15.8 27.7 -23.5 50.6 -31.1 13 -4.3 19.4 -7.9 24.4 -13.8 2.6 -3.2 12.8 -24.3 12 -25.1 -0.4 -0.4 -2.9 0.3 -41 12.8 -28.6 9.4 -36 12.2 -48.4 18.4 -26.5 13.3 -49.5 39.1 -61.2 68.7 -2.3 5.7 -15.5 44.4 -29.4 85.9 -13.9 41.5 -26.2 78 -27.5 81 -3.6 9.1 -9 17 -17.5 25.9 -13.6 14.2 -19.1 17.3 -74.5 42.6 -39.3 17.9 -60.3 27.6 -94.5 43.5 -34.6 16.1 -35.2 16.3 -46.5 16.3 -11.8 0 -17.8 -2.1 -28.8 -10.1 -11.3 -8.3 -12.6 -9.1 -19.2 -10.8 -15.1 -3.9 -30.9 6 -35.6 22.4 -5 17.1 6.1 35.7 24.1 40.3 1.7 0.5 5.5 0.6 8.5 0.3 3.6 -0.3 48.2 -14.7 130 -42z m577.7 -195 c1.4 -2.2 1.4 -3.3 -0.2 -11.7 -0.9 -5 -2.6 -11.2 -3.8 -13.7 -2 -4 -3.1 -5 -11.2 -8.9 -19 -9.4 -27.6 -23.9 -26.1 -43.8 l0.6 -8.3 -3.9 0 c-6.3 0 -18.1 -2.6 -24.4 -5.4 -15.4 -6.8 -27.9 -21.6 -32.2 -38.3 -1.9 -7.4 -1.9 -20.3 0 -27.8 2.9 -11 7.2 -18.4 15.4 -26.5 11.7 -11.6 24.4 -17 39.9 -17 14.9 0 27.2 5.2 39 16.4 6.1 5.8 8.1 8.6 12.2 16.8 l4.8 9.9 18.5 -14 c23.9 -18.1 30.1 -21.6 38.2 -21.5 6.7 0.1 11 1.9 16.8 7 2 1.9 4.2 3.4 4.8 3.4 1.6 0 20.9 -16.3 20.9 -17.6 0 -2.6 -11.8 -16.1 -15 -17.2 -3.3 -1.2 -156.5 -0.8 -208.8 0.4 l-24.3 0.6 5.4 5.7 c12.9 13.5 17.4 33.3 11.7 51.6 -2 6.4 -16 41 -33.8 83.5 -9.6 22.9 -9.8 23.7 -7.6 26.1 2.4 2.7 8.6 2.5 18.1 -0.6 11.2 -3.6 17.8 -4.1 24.4 -2 3 1 30 14.1 60 29.1 39.1 19.5 55.3 27.1 56.9 26.7 1.2 -0.3 2.8 -1.6 3.7 -2.9z m-211.7 -10.6 c18.5 -5.5 29.8 -21.2 28.8 -40.1 -1.1 -20.4 -14 -35.1 -33.9 -38.8 -5.8 -1 -8 -0.9 -18.5 1 -27.1 4.8 -40.6 2.3 -72.3 -13.3 -13.8 -6.8 -18.6 -8 -21.5 -5 -2.3 2.2 -2 6.7 0.7 9.1 1.2 1.2 8.6 6.1 16.4 11 29.3 18.3 37.4 26.8 52.8 54.7 4.8 8.7 10.8 14.6 19 18.7 9.4 4.6 19 5.5 28.5 2.7z m53.5 -95.5 c26.8 -65.2 24.9 -59.8 24.9 -68.8 0.1 -15.5 -7.5 -28 -21.2 -34.7 -6 -3 -7.6 -3.3 -15.2 -3.3 -7.4 0 -9.3 0.4 -15 3.1 -11.3 5.5 -14.2 8.7 -22.6 26 -11.2 23 -17.1 27.9 -43.4 36.9 -14.6 5 -21.4 8.4 -30 15 -6.8 5.3 -17 15.9 -17 17.7 0 1.9 17.6 9.7 27 12 9.8 2.3 17 2.3 33.2 -0.4 11.5 -1.8 14.3 -2 21.1 -1 15.9 2.3 31.3 12.2 39.4 25.4 2 3.2 3.9 5.8 4.2 5.8 0.4 0 6.9 -15.2 14.6 -33.7z m119.5 4.6 c22.2 -3.6 39.2 -27.3 35.2 -49.2 -5.4 -28.9 -34.6 -44.7 -60.3 -32.5 -16.8 8 -25.6 22.9 -24.7 41.9 0.4 7.6 0.9 9.7 4.1 16.2 5.8 11.8 16.8 20.4 29.7 23.3 7 1.6 8.2 1.6 16 0.3z m-209.7 -103.9 c14.9 -5 27.7 -9.5 28.6 -10 1 -0.7 -8.2 -0.9 -26.7 -0.8 l-28.4 0.3 -1.9 2.4 c-1.4 1.8 -1.9 3.9 -1.9 9 0 6.7 0.4 8.1 2.3 8.1 0.6 0 13.2 -4.1 28 -9z"/>
  <path d="M586 531.1 c-11.4 -3.5 -18.9 -13.8 -19 -26.1 0 -25 30.6 -36.8 47 -18.2 5 5.7 7.4 13.3 6.7 21.2 -1.2 13.9 -12.4 24 -26.2 23.9 -3.3 0 -7.1 -0.4 -8.5 -0.8z m15.8 -14.9 c5.1 -3.3 7 -10.7 4.3 -16.7 -2 -4.5 -7.6 -8.5 -12.1 -8.5 -1.1 0 -3.9 0.9 -6.1 2.1 -5 2.5 -8.3 9 -7.4 14.2 1.8 9.4 13.3 14.2 21.3 8.9z"/>
  <path d="M640.5 403.1 c-4.9 -1.2 -9 -3.8 -12.5 -7.7 -4.5 -5.2 -6 -9.3 -6 -16.4 0 -10.3 4.3 -17.7 13.1 -22.5 12.3 -6.7 27 -2 33.5 10.7 3.4 6.7 3.9 11.5 1.9 18.4 -1.3 4.7 -2.7 6.9 -7 11.1 -6.9 6.7 -13.7 8.6 -23 6.4z m14.1 -16.5 c2.6 -2.6 3.4 -4.2 3.4 -7 0 -4.9 -2.3 -9.2 -6 -11.1 -10.1 -5.2 -20.8 5.3 -15.5 15.5 2.1 4.2 5.3 6 10.3 6 3.7 0 5 -0.6 7.8 -3.4z"/>
  <path d="M763 437.1 c-16.2 -5 -24.3 -23.9 -16.7 -39.3 1.6 -3.2 4.5 -7.1 6.5 -8.8 4.4 -3.6 12.9 -7 17.6 -7 5.9 0 13.1 2.9 18 7.1 6.3 5.6 8.8 10.8 9.4 19.5 0.4 6.2 0.1 7.9 -2.3 13.3 -3.3 7.2 -8.6 12.3 -15.3 14.5 -4.8 1.7 -12.9 2 -17.2 0.7z m14.9 -15 c8.8 -6.2 8.9 -18 0.2 -23.8 -8.9 -6 -21.1 0.7 -21.1 11.6 0 7.1 3 11.3 9.7 13.6 4.3 1.5 7.7 1.1 11.2 -1.4z"/>
 </g>
</svg>